<svg viewBox="0 0 512 512" xmlns="http://www.w3.org/2000/svg" fill-rule="evenodd" clip-rule="evenodd" stroke-linejoin="round" stroke-miterlimit="2"><path d="M256 208.49c-11.502 0-20.86-9.357-20.86-20.86 0-11.507 9.358-20.87 20.86-20.87 11.508 0 20.87 9.363 20.87 20.87 0 11.503-9.362 20.86-20.87 20.86m0 136.76c-11.502 0-20.86-9.363-20.86-20.87 0-11.507 9.358-20.87 20.86-20.87 11.508 0 20.87 9.363 20.87 20.87 0 11.507-9.362 20.87-20.87 20.87M256 482c-11.502 0-20.86-9.358-20.86-20.86 0-11.507 9.358-20.871 20.86-20.871 11.508 0 20.87 9.364 20.87 20.871 0 11.502-9.362 20.86-20.87 20.86m0-452c11.508 0 20.87 9.362 20.87 20.87 0 11.508-9.362 20.87-20.87 20.87-11.502 0-20.86-9.362-20.86-20.87C235.14 39.362 244.498 30 256 30m50.87 20.87C306.87 22.82 284.05 0 256 0c-28.044 0-50.86 22.82-50.86 50.87 0 22.829 15.114 42.192 35.86 48.61v39.54c-20.746 6.417-35.86 25.781-35.86 48.61 0 22.825 15.114 42.184 35.86 48.6v39.54c-20.746 6.417-35.86 25.781-35.86 48.61s15.114 42.192 35.86 48.61v39.54c-20.746 6.417-35.86 25.78-35.86 48.61 0 28.044 22.816 50.86 50.86 50.86 28.05 0 50.87-22.816 50.87-50.86 0-22.831-15.119-42.195-35.87-48.611V372.99c20.751-6.416 35.87-25.779 35.87-48.61s-15.119-42.195-35.87-48.611v-39.538c20.751-6.415 35.87-25.775 35.87-48.601 0-22.831-15.119-42.195-35.87-48.611V99.48c20.751-6.416 35.87-25.779 35.87-48.61M140.22 61.476a14.911 14.911 0 0 1-10.614 4.397h-79.18a14.88 14.88 0 0 1-10.613-4.405 14.87 14.87 0 0 1-4.387-10.595c0-4.006 1.558-7.77 4.405-10.612a14.867 14.867 0 0 1 10.595-4.388h79.18c4.009 0 7.778 1.562 10.613 4.396a15.101 15.101 0 0 1 4.387 10.604c0 3.951-1.599 7.816-4.386 10.603M129.606 5.873h-79.18c-12.031 0-23.333 4.685-31.808 13.175C10.111 27.54 5.426 38.843 5.426 50.873c0 12.031 4.685 23.333 13.174 31.808 8.493 8.508 19.795 13.192 31.826 13.192h79.18c12.021 0 23.324-4.681 31.827-13.184 8.495-8.494 13.173-19.794 13.173-31.816 0-12.021-4.678-23.321-13.174-31.817-8.502-8.501-19.805-13.183-31.826-13.183M140.22 334.988a14.913 14.913 0 0 1-10.614 4.396h-79.18a14.88 14.88 0 0 1-10.613-4.405 14.868 14.868 0 0 1-4.387-10.595c0-4.006 1.558-7.77 4.405-10.612a14.867 14.867 0 0 1 10.595-4.388h79.18c4.009 0 7.778 1.562 10.613 4.396a15.101 15.101 0 0 1 4.387 10.604c0 4.009-1.558 7.776-4.386 10.604m-10.614-55.604h-79.18c-12.031 0-23.333 4.685-31.808 13.175-8.507 8.492-13.192 19.795-13.192 31.825 0 12.031 4.685 23.333 13.174 31.808 8.492 8.508 19.795 13.192 31.826 13.192h79.18c12.022 0 23.324-4.681 31.827-13.183 8.495-8.495 13.173-19.794 13.173-31.817 0-12.021-4.678-23.321-13.174-31.817-8.502-8.501-19.805-13.183-31.826-13.183M371.77 177.022a15.134 15.134 0 0 1 10.612-4.396h79.191c4.009 0 7.774 1.558 10.603 4.387a14.913 14.913 0 0 1 4.397 10.613c0 4.003-1.562 7.769-4.397 10.604a15.102 15.102 0 0 1-10.603 4.396h-79.191a15.123 15.123 0 0 1-10.593-4.386c-2.8-2.806-4.407-6.674-4.407-10.614a14.93 14.93 0 0 1 4.388-10.604m10.612 55.604h79.191c12.015 0 23.314-4.681 31.817-13.183 8.501-8.502 13.183-19.802 13.183-31.817 0-12.022-4.682-23.325-13.184-31.826-8.495-8.495-19.794-13.174-31.816-13.174h-79.191c-12.007 0-23.303 4.675-31.826 13.183-8.495 8.511-13.174 19.811-13.174 31.817 0 12.001 4.679 23.297 13.194 31.828 8.509 8.494 19.805 13.172 31.806 13.172M472.18 471.748a15.106 15.106 0 0 1-10.604 4.396h-79.19a15.122 15.122 0 0 1-10.594-4.387c-2.8-2.806-4.406-6.673-4.406-10.613 0-4.003 1.565-7.777 4.387-10.604a15.13 15.13 0 0 1 10.613-4.396h79.19c3.952 0 7.816 1.599 10.603 4.385a14.914 14.914 0 0 1 4.397 10.615c0 4.002-1.561 7.768-4.396 10.604m-10.604-55.604h-79.19c-12.007 0-23.303 4.674-31.826 13.182-8.495 8.512-13.174 19.811-13.174 31.818 0 12 4.679 23.297 13.192 31.826 8.511 8.495 19.807 13.174 31.808 13.174h79.19c12.016 0 23.316-4.682 31.817-13.183 8.502-8.502 13.183-19.801 13.183-31.817 0-12.021-4.681-23.324-13.183-31.828-8.495-8.494-19.795-13.172-31.817-13.172M159.61 142.37H48.66c-8.284 0-15 6.716-15 15 0 8.284 6.716 15 15 15h110.95c8.284 0 15-6.716 15-15 0-8.284-6.716-15-15-15M159.61 202.89h-49.59c-8.284 0-15 6.715-15 15 0 8.283 6.716 15 15 15h49.59c8.284 0 15-6.717 15-15 0-8.285-6.716-15-15-15M352.38 309.12h110.96c8.284 0 15-6.716 15-15 0-8.284-6.716-15-15-15H352.38c-8.284 0-15 6.716-15 15 0 8.284 6.716 15 15 15M352.38 369.64h49.601c8.284 0 15-6.717 15-15 0-8.285-6.716-15-15-15H352.38c-8.284 0-15 6.715-15 15 0 8.283 6.716 15 15 15" fill-rule="nonzero"/></svg>